<?xml version="1.0" encoding="UTF-8" standalone="no"?>
<svg
   width="200"
   height="200"
   viewBox="0 0 200 200"
   version="1.1"
   id="svg3362"
   sodipodi:docname="circle.svg"
   inkscape:version="1.2.1 (9c6d41e410, 2022-07-14)"
   xmlns:inkscape="http://www.inkscape.org/namespaces/inkscape"
   xmlns:sodipodi="http://sodipodi.sourceforge.net/DTD/sodipodi-0.dtd"
   xmlns="http://www.w3.org/2000/svg"
   xmlns:svg="http://www.w3.org/2000/svg">
  <defs
     id="defs3366" />
  <sodipodi:namedview
     id="namedview3364"
     pagecolor="#ffffff"
     bordercolor="#000000"
     borderopacity="0.25"
     inkscape:showpageshadow="2"
     inkscape:pageopacity="0.0"
     inkscape:pagecheckerboard="0"
     inkscape:deskcolor="#d1d1d1"
     showgrid="false"
     inkscape:lockguides="true"
     inkscape:zoom="5.135"
     inkscape:cx="85.004869"
     inkscape:cy="87.828627"
     inkscape:window-width="2560"
     inkscape:window-height="1377"
     inkscape:window-x="-8"
     inkscape:window-y="-8"
     inkscape:window-maximized="1"
     inkscape:current-layer="g3360" />
  <g
     transform="translate(100,100)"
     stroke="#000"
     stroke-width="2"
     id="g3360">
    <g
       id="path7116">
      <path
         style="color:#000000;fill:#011d00;stroke-width:1.99511;-inkscape-stroke:none"
         d="M -98.980501,-99.004089 A 198.0258,198.312 0 0 1 99.055893,99.001276 l -198.025566,0.306631 z"
         id="path7287" />
      <path
         style="color:#000000;fill:#000000;-inkscape-stroke:none"
         d="m -99.978516,-100.00195 v 0.998044 L -99.966797,100.30664 100.05469,99.998047 100.05273,99 C 99.882979,-10.946771 10.810095,-100.00797 -98.980469,-100.00195 Z m 1.996094,2.021481 C 9.9345748,-97.447493 97.328039,-10.068833 98.03125,98.005859 l -196.003906,0.302735 z"
         id="path7289" />
    </g>
    <g
       id="path7263"
       transform="translate(-100,-100)">
      <path
         style="color:#000000;fill:#ffffff;stroke-width:0.194742;-inkscape-stroke:none"
         d="M 0.09737098,102.77507 V 9.7857838 H 1.2171373 2.3369036 V 102.77507 195.76436 H 1.2171373 0.09737098 Z"
         id="path7275" />
      <path
         style="color:#000000;fill:#000000;-inkscape-stroke:none"
         d="m 0,9.6875 v 93.08789 93.08594 H 1.2167969 2.4335938 V 102.77539 9.6875 H 1.2167969 Z M 0.1953125,9.8828125 H 1.2167969 2.2402344 V 102.77539 195.66602 H 1.2167969 0.1953125 v -92.89063 z"
         id="path7277" />
    </g>
    <g
       id="path7265"
       transform="translate(-100,-100)">
      <path
         style="color:#000000;fill:#ffffff;stroke-width:0.389484;-inkscape-stroke:none"
         d="m 0.19474197,198.06263 v -2.24958 H 1.2658228 2.3369036 v 1.07108 1.07108 l 75.5111974,-1e-4 c 41.531159,-4e-5 85.548519,-0.0582 97.816349,-0.12931 l 22.30515,-0.12921 -0.0531,-1.1852 c -0.0292,-0.65186 -0.14596,-3.24459 -0.25944,-5.76163 -0.62952,-13.96515 -2.36528,-25.98559 -5.66634,-39.24051 C 184.45053,121.23296 170.56719,94.520282 149.58243,69.912366 144.20404,63.605363 132.76879,52.495042 125.70594,46.714325 115.8573,38.653523 104.19586,30.886129 93.573515,25.311706 92.395326,24.693414 90.861733,23.885866 90.165531,23.517155 89.469328,23.148444 87.322298,22.098403 85.394352,21.183731 61.842204,10.009916 37.017165,3.77454 10.808179,2.4497089 8.6660175,2.3414251 5.8836417,2.2092347 4.6251217,2.1559519 L 2.3369036,2.0590742 V 5.8494008 9.6397274 H 1.2658228 0.19474197 V 4.8373015 0.03487572 L 5.4040896,0.15957492 C 64.630134,1.5773033 119.52021,28.804584 156.51746,75.116767 c 11.84314,14.824931 21.92442,32.122093 28.97404,49.712833 7.72719,19.28146 12.22503,38.56854 13.91964,59.68841 0.23864,2.97415 0.69182,15.15182 0.56845,15.27519 -0.0489,0.0489 -34.96445,0.13743 -77.5902,0.19681 -42.625752,0.0594 -87.557355,0.15618 -99.848007,0.21509 l -22.34664103,0.10711 z"
         id="path7269" />
      <path
         style="color:#000000;fill:#000000;-inkscape-stroke:none"
         d="M 0,-0.1640625 V 4.8378906 9.8339844 H 1.265625 2.53125 V 5.8496094 2.2617188 l 2.0859375,0.087891 c 1.2570382,0.05322 4.0399918,0.186664 6.1816405,0.2949219 26.184383,1.3235874 50.982126,7.5517297 74.511719,18.7148437 1.926383,0.913931 4.07867,1.9673 4.763672,2.330078 0.696799,0.369028 2.229805,1.17652 3.408203,1.794922 10.608348,5.56708 22.261838,13.328951 32.099608,21.380859 7.04793,5.768504 18.48834,16.884613 23.85156,23.173828 20.96711,24.587215 34.83406,51.269648 42.36719,81.517578 3.29825,13.24365 5.03309,25.2471 5.66211,39.20117 0.11348,2.51703 0.23057,5.10998 0.25977,5.76172 l 0.043,0.98438 -22.10156,0.12695 c -12.26573,0.0711 -56.28547,0.12887 -97.816404,0.12891 H 2.53125 v -0.875 -1.26563 H 1.265625 0 v 2.44336 2.44531 l 22.542969,-0.10742 c 12.289387,-0.0589 57.222051,-0.15544 99.847661,-0.21484 21.31291,-0.0297 40.69644,-0.0678 54.75976,-0.10352 7.03166,-0.0178 12.73327,-0.0347 16.67969,-0.0508 1.97321,-0.008 3.50776,-0.0162 4.55078,-0.0234 0.52151,-0.004 0.91992,-0.006 1.18945,-0.01 0.13477,-0.002 0.23841,-0.004 0.3086,-0.006 0.0351,-8.2e-4 0.0617,-0.001 0.082,-0.002 0.0102,-4.5e-4 0.0179,-0.001 0.0273,-0.002 0.005,-3.9e-4 0.0102,-5.2e-4 0.0195,-0.002 0.009,-0.001 0.10919,-0.0545 0.10938,-0.0547 4.8e-4,-4.8e-4 0.0285,-0.0348 0.0352,-0.0469 0.007,-0.0121 0.0108,-0.0214 0.0137,-0.0293 0.006,-0.0158 0.008,-0.0274 0.01,-0.0371 0.004,-0.0195 0.006,-0.0334 0.008,-0.0508 0.004,-0.0348 0.006,-0.0762 0.008,-0.12696 0.004,-0.10142 0.004,-0.24136 0.004,-0.41796 -0.001,-0.3532 -0.009,-0.85161 -0.0234,-1.45508 -0.0289,-1.20694 -0.0826,-2.83438 -0.14648,-4.55078 -0.12775,-3.43281 -0.29969,-7.21645 -0.41992,-8.71485 -1.69605,-21.13781 -6.19944,-40.44529 -13.9336,-59.74414 C 178.61481,107.1485 168.52552,89.836617 156.66992,74.996094 119.63731,28.63965 64.690943,1.3839293 5.4082031,-0.03515625 Z M 0.38867188,0.234375 5.4003906,0.35351563 C 64.569621,1.769884 119.40342,28.970451 156.36523,75.238281 c 11.83066,14.809309 21.90315,32.091929 28.94532,49.664059 7.7202,19.26404 12.21308,38.52898 13.90625,59.63086 0.11841,1.47575 0.29226,5.26883 0.41992,8.69922 0.0638,1.7152 0.1157,3.34091 0.14453,4.54492 0.0144,0.60201 0.0224,1.09927 0.0234,1.44727 4.9e-4,0.16386 -0.001,0.28736 -0.004,0.37891 -0.0641,0.001 -0.13058,0.003 -0.23437,0.004 -0.26811,0.003 -0.66636,0.008 -1.1875,0.0117 -1.04229,0.007 -2.57776,0.0134 -4.55079,0.0215 -3.94604,0.0161 -9.64618,0.0349 -16.67773,0.0527 -14.06309,0.0357 -33.44893,0.0719 -54.76172,0.10156 -42.625812,0.0594 -87.555762,0.15593 -99.847654,0.21485 l -22.15234412,0.10742 v -2.05469 -2.05469 H 1.265625 2.1425781 v 0.87696 1.26562 H 77.847656 c 41.531304,-4e-5 85.548454,-0.0578 97.818364,-0.12891 l 22.50781,-0.13086 -0.0625,-1.38867 c -0.0292,-0.65198 -0.14629,-3.24467 -0.25977,-5.76172 -0.63002,-13.9762 -2.36801,-26.01118 -5.67187,-39.27734 C 184.63245,121.1583 170.73284,94.413725 149.73047,69.785156 144.33692,63.460379 132.90784,52.357372 125.83008,46.564453 115.97059,38.494774 104.30038,30.720426 93.664062,25.138672 92.486085,24.520491 90.951462,23.714097 90.255859,23.345703 89.548456,22.97106 87.408021,21.923224 85.478516,21.007812 61.90386,9.8233193 37.051896,3.5819315 10.818359,2.2558594 8.6756895,2.1475499 5.8928118,2.0142829 4.6328125,1.9609375 L 2.1425781,1.8554687 V 5.8496094 9.4453125 H 1.265625 0.38867188 V 4.8378906 Z"
         id="path7271" />
    </g>
    <path
       style="fill:#ffffff;fillOpacity:1;stroke-width:0.550813"
       d="M -0.96392356,100.21704 V -0.96392356 l 3.23602906,0.001416 C 6.5571701,-0.96063176 14.944289,-0.5042833 20.242395,0.01526753 52.980714,3.2257024 83.834092,14.16301 111.1933,32.256727 c 43.01748,28.449154 73.4729,72.563913 84.87037,122.934963 1.92644,8.51392 3.53262,19.01699 4.29588,28.09149 0.34705,4.12622 0.78144,16.07765 0.61584,16.94392 l -0.11738,0.61405 -73.43915,0.16838 c -40.391526,0.0926 -85.80146,0.2179 -100.910962,0.27842 l -27.47182156,0.11004 z m 192.60399356,96.37814 5.18971,-0.18137 -0.18081,-3.7424 c -0.62491,-12.93506 -1.92668,-23.56788 -4.16712,-34.03713 C 185.60678,126.50819 171.81948,98.394265 150.2075,72.43197 146.25266,67.681044 136.05704,57.310406 130.26738,52.149545 97.831304,23.236264 54.452378,5.5915347 10.878566,3.5871793 8.9851446,3.5000836 6.5374673,3.3593791 5.4392829,3.2745029 L 3.4425841,3.120182 v 96.828964 96.828964 l 91.5038859,-8.3e-4 c 50.32714,-5.5e-4 93.83926,-0.0824 96.6936,-0.18214 z M 1.1704732,56.802638 c -0.038757,-25.333976 -0.070467,-4.606177 -0.070467,46.061772 0,50.66796 0.03171,71.39576 0.070467,46.06178 0.038757,-25.33398 0.038757,-66.789575 0,-92.123552 z"
       id="path7310"
       transform="translate(-100,-100)" />
  </g>
</svg>
